<?xml version="1.0" encoding="utf-8"?>
<!-- Generator: Adobe Illustrator 26.2.1, SVG Export Plug-In . SVG Version: 6.00 Build 0)  -->
<svg version="1.1" id="Layer_1" xmlns="http://www.w3.org/2000/svg" xmlns:xlink="http://www.w3.org/1999/xlink" x="0px" y="0px"
	 viewBox="0 0 335 60" style="enable-background:new 0 0 335 60;" xml:space="preserve">
<style type="text/css">
	.st0{fill-rule:evenodd;clip-rule:evenodd;fill:#0071BC;}
	.st1{fill-rule:evenodd;clip-rule:evenodd;fill:#FFFFFF;}
	.st2{fill-rule:evenodd;clip-rule:evenodd;fill:#3F4750;}
</style>
<path class="st0" d="M0,0h59.6v60.1H0V0z"/>
<path id="CSI" class="st1" d="M46.6,24.1v19.2h5.7V24.1H46.6z M46.6,16.2v5.8h5.7v-5.8C52.3,16.2,46.6,16.2,46.6,16.2z M12.1,17.6
	C5,21,5,29.6,5,29.7C4.9,33.5,6.4,37.1,9,39.8c3.3,3.4,8.1,3.6,8.9,3.6h4.3v-5.5h-4.6c-4.1,0-6.1-4.3-6.1-4.3c-1.2-2.8-1-6,0.6-8.6
	c1.5-2,3.9-3.2,6.5-3.2h3.7v-5.6l-5.9,0.1C14.9,16.4,13.4,16.8,12.1,17.6L12.1,17.6z M43.8,16.1c-11.4,0-12,10.7-12,10.8l-0.2,5.2
	c0.1,1.5-0.5,3-1.5,4c-2,1.9-5.2,1.8-5.2,1.8h-0.4v5.5h0.3c12.4,0,12.6-10.9,12.6-11l0.1-5c-0.1-1.5,0.5-3,1.5-4
	c1.4-1.1,3.1-1.6,4.8-1.5h0.4v-5.7H43.8z"/>
<path id="TAG" class="st2" d="M72.1,40.6l1.3-0.2c0.2,0.9,0.4,1.4,1.1,1.4c0.4,0,0.7-0.3,0.7-0.7c0,0,0-0.1,0-0.1c0-1.4-3-2-3-4.2
	c-0.1-1.1,0.8-2,1.9-2.1c0.1,0,0.2,0,0.3,0c1.4,0,1.9,0.9,2.2,2.3l-1.4,0.3c-0.2-0.8-0.4-1.3-0.9-1.3c-0.3,0-0.6,0.2-0.6,0.5
	c0,0,0,0.1,0,0.1c0,1.4,3,2,3,4.2c0,1.1-0.9,2.1-2,2.1c-0.1,0-0.2,0-0.2,0C72.9,43.1,72.4,42,72.1,40.6z M79.1,36.2h-1.5v-1.3h4.5
	v1.3h-1.5V43h-1.6L79.1,36.2L79.1,36.2z M87.9,43h-1.5l-1-2.9h-0.6V43h-1.5v-8.1h2c1.5,0,2.5,0.7,2.5,2.6c0.1,0.9-0.3,1.7-1,2.2
	L87.9,43z M85.3,38.9c0.7,0,1-0.3,1-1.4c0-1-0.3-1.3-1-1.3h-0.5v2.7H85.3L85.3,38.9z M89.1,40.4v-5.5h1.5v5.4c0,1,0.2,1.4,0.8,1.4
	s0.8-0.4,0.8-1.4v-5.5h1.4v5.5c0,1.7-0.6,2.7-2.3,2.7C89.7,43.1,89.1,42.1,89.1,40.4z M94.9,38.9c0-3,1-4.1,2.6-4.1s2.2,1,2.3,3
	l-1.5,0.1c-0.1-1.3-0.3-1.7-0.9-1.7c-0.7,0-1,0.9-1,2.8c0,1.9,0.3,2.8,1,2.8c0.6,0,0.8-0.4,0.9-1.8l1.5,0.1c-0.2,1.7-0.8,3-2.4,3
	S94.9,41.9,94.9,38.9L94.9,38.9z M102.1,36.2h-1.5v-1.3h4.5v1.3h-1.5V43h-1.6V36.2L102.1,36.2z M106.2,40.4v-5.5h1.5v5.4
	c0,1,0.2,1.4,0.8,1.4s0.8-0.4,0.8-1.4v-5.5h1.4v5.5c0,1.7-0.6,2.7-2.3,2.7C106.8,43.1,106.2,42.1,106.2,40.4L106.2,40.4z M116.9,43
	h-1.5l-1-2.9h-0.6V43h-1.5v-8.1h2c1.5,0,2.5,0.7,2.5,2.6c0.1,0.9-0.3,1.7-1,2.2L116.9,43z M114.3,38.9c0.7,0,1-0.3,1-1.4
	c0-1-0.3-1.3-1-1.3h-0.5v2.7H114.3L114.3,38.9z M119,43h-1.3l1.8-8.1h1.5l1.8,8.1h-1.5l-0.4-1.8h-1.6L119,43z M120.6,39.4
	c-0.2-0.9-0.3-1.4-0.4-2.6h0c-0.1,1.2-0.3,1.7-0.4,2.6l-0.1,0.8h1.2L120.6,39.4z M123.9,34.9h1.5v6.8h2.3V43h-3.8L123.9,34.9
	L123.9,34.9z M132.3,43h-1.3l1.8-8.1h1.5l1.8,8.1h-1.5l-0.4-1.8h-1.6L132.3,43z M133.9,39.4c-0.2-0.9-0.3-1.4-0.4-2.6h0
	c-0.1,1.2-0.3,1.7-0.4,2.6l-0.1,0.8h1.2L133.9,39.4z M137.2,34.9h1.6l1.3,3.4c0.2,0.6,0.4,1.1,0.5,1.6h0v-5h1.2V43h-1.3l-1.6-4
	c-0.2-0.6-0.5-1.3-0.6-1.6h0V43h-1.2L137.2,34.9L137.2,34.9z M143.4,34.9h1.8c1.9,0,3.1,0.8,3.1,4c0,3.3-1.2,4.1-3.1,4.1h-1.8V34.9
	L143.4,34.9z M145.4,41.7c1,0,1.3-0.7,1.3-2.8c0-2-0.3-2.7-1.4-2.7h-0.4v5.5L145.4,41.7L145.4,41.7z M152,34.9h3.8v1.3h-2.2v1.9h1.6
	v1.2h-1.6v2.4h2.3V43H152V34.9L152,34.9z M158,43h-1.3l1.8-8.1h1.5l1.8,8.1h-1.5l-0.4-1.8h-1.6L158,43z M159.6,39.4
	c-0.2-0.9-0.3-1.4-0.4-2.6h0c-0.1,1.2-0.3,1.7-0.4,2.6l-0.1,0.8h1.2L159.6,39.4z M167.5,43H166l-1-2.9h-0.6V43h-1.5v-8.1h2
	c1.5,0,2.5,0.7,2.5,2.6c0.1,0.9-0.3,1.7-1,2.2L167.5,43z M164.9,38.9c0.7,0,1-0.3,1-1.4c0-1-0.3-1.3-1-1.3h-0.5v2.7H164.9z
	 M169.8,36.2h-1.5v-1.3h4.5v1.3h-1.5V43h-1.6V36.2L169.8,36.2z M174,34.9h1.5v3.2h1.7v-3.2h1.6V43h-1.6v-3.6h-1.7V43H174V34.9
	L174,34.9z M181.9,42.9c-1.2-0.3-1.9-1.5-1.9-4c0-3,1.1-4.1,2.6-4.1s2.6,1.2,2.6,4.1c0,2.6-0.8,3.8-2,4c0,0.5,0.3,0.9,0.8,0.9
	c0.1,0,0.2,0,0.3,0h0.3v1.3H184C182.3,45.2,181.9,44.2,181.9,42.9L181.9,42.9z M183.7,38.9c0-1.9-0.3-2.8-1-2.8s-1.1,0.9-1.1,2.8
	s0.3,2.8,1.1,2.8S183.7,40.8,183.7,38.9L183.7,38.9z M186.5,40.4v-5.6h1.5v5.4c0,1,0.2,1.4,0.8,1.4s0.8-0.4,0.8-1.4v-5.5h1.4v5.5
	c0,1.7-0.6,2.7-2.3,2.7C187.1,43.1,186.5,42.1,186.5,40.4L186.5,40.4z M193.4,43h-1.3l1.8-8.1h1.5l1.8,8.1h-1.5l-0.4-1.8h-1.6
	L193.4,43z M195,39.4c-0.2-0.9-0.3-1.4-0.4-2.6h0c-0.1,1.2-0.3,1.7-0.4,2.6l-0.1,0.8h1.2L195,39.4z M198.3,34.9h1.5v3.7
	c0.2-0.6,0.4-1.2,0.7-1.8l0.9-1.9h1.5l-1.6,3.2l1.8,4.9h-1.6l-1.3-3.5l-0.5,1V43h-1.5V34.9L198.3,34.9z M204.2,34.9h3.8v1.3h-2.2
	v1.9h1.6v1.2h-1.6v2.4h2.3V43h-3.9L204.2,34.9L204.2,34.9z M211.7,34.9h3.8v1.3h-2.2v1.9h1.6v1.2h-1.6v2.4h2.3V43h-3.9V34.9
	L211.7,34.9z M216.8,34.9h1.6l1.3,3.4c0.2,0.6,0.4,1.1,0.5,1.6h0v-5h1.2V43h-1.3l-1.6-4c-0.2-0.6-0.5-1.3-0.6-1.6h0V43h-1.2
	L216.8,34.9L216.8,34.9z M222.8,38.9c0-2.8,0.9-4.1,2.5-4.1c1.4,0,2,0.9,2.3,3l-1.4,0.2c-0.1-1.3-0.4-1.8-0.9-1.8
	c-0.7,0-1,0.7-1,2.8s0.4,2.9,1.1,2.9c0.6,0,0.9-0.5,1-1.6h-0.9V39h2.3v4h-1l0-1h0c-0.2,0.7-0.8,1.1-1.5,1.1
	C223.5,43.1,222.8,41.7,222.8,38.9z M229.2,34.9h1.5V43h-1.5V34.9z M232.4,34.9h1.6l1.3,3.4c0.2,0.6,0.4,1.1,0.5,1.6h0v-5h1.2V43
	h-1.3l-1.6-4c-0.2-0.6-0.5-1.3-0.6-1.6h0V43h-1.2L232.4,34.9L232.4,34.9z M238.6,34.9h3.8v1.3h-2.2v1.9h1.6v1.2h-1.6v2.4h2.3V43
	h-3.9L238.6,34.9L238.6,34.9z M243.7,34.9h3.8v1.3h-2.2v1.9h1.6v1.2h-1.6v2.4h2.3V43h-3.9V34.9L243.7,34.9z M253.4,43h-1.5l-1-2.9
	h-0.6V43h-1.5v-8.1h2c1.5,0,2.5,0.7,2.5,2.6c0.1,0.9-0.3,1.7-1,2.2L253.4,43z M250.8,38.9c0.7,0,1-0.3,1-1.4c0-1-0.3-1.3-1-1.3h-0.5
	v2.7H250.8L250.8,38.9z M254.8,34.9h1.5V43h-1.5L254.8,34.9L254.8,34.9z M257.9,34.9h1.6l1.3,3.4c0.2,0.6,0.4,1.1,0.5,1.6h0v-5h1.2
	V43h-1.3l-1.6-4c-0.2-0.6-0.5-1.3-0.6-1.6h0V43h-1.2L257.9,34.9L257.9,34.9z M263.9,38.9c0-2.8,0.9-4.1,2.5-4.1c1.4,0,2,0.9,2.3,3
	l-1.4,0.2c-0.1-1.3-0.4-1.8-0.9-1.8c-0.7,0-1,0.7-1,2.8s0.4,2.9,1.1,2.9c0.6,0,0.9-0.5,1-1.6h-0.9V39h2.3v4h-1l0-1h0
	c-0.2,0.7-0.8,1.1-1.5,1.1C264.6,43.1,263.9,41.7,263.9,38.9L263.9,38.9z M272.4,40.6l1.3-0.2c0.2,0.9,0.4,1.4,1.1,1.4
	c0.4,0,0.7-0.3,0.7-0.7c0,0,0-0.1,0-0.1c0-1.4-3-2-3-4.2c-0.1-1.1,0.8-2,1.9-2.1c0.1,0,0.2,0,0.3,0c1.4,0,1.9,0.9,2.2,2.3l-1.4,0.3
	c-0.2-0.8-0.4-1.3-0.9-1.3c-0.3,0-0.6,0.2-0.6,0.5c0,0,0,0.1,0,0.1c0,1.4,3,2,3,4.2c0,1.1-0.9,2.1-2,2.1c-0.1,0-0.2,0-0.2,0
	C273.2,43.1,272.7,42,272.4,40.6L272.4,40.6z M278.1,38.9c0-3,1.1-4.1,2.6-4.1s2.6,1.2,2.6,4.1s-1.1,4.1-2.6,4.1
	S278.1,41.9,278.1,38.9L278.1,38.9z M281.8,38.9c0-1.9-0.3-2.8-1-2.8s-1.1,0.9-1.1,2.8s0.3,2.8,1.1,2.8S281.8,40.8,281.8,38.9
	L281.8,38.9z M284.7,34.9h3.8v1.3h-2.2v2h1.6v1.2h-1.6V43h-1.5L284.7,34.9L284.7,34.9z M290.6,36.2h-1.5v-1.3h4.5v1.3h-1.5V43h-1.6
	V36.2z M294.4,34.9h1.5l0.5,3.2c0.1,0.8,0.2,1.3,0.3,2.4h0c0.1-1,0.2-1.6,0.3-2.4l0.5-3.2h1.3l0.5,3.2c0.1,0.8,0.2,1.4,0.3,2.4h0
	c0.1-1,0.2-1.6,0.3-2.3l0.5-3.2h1.3l-1.4,8.1h-1.3l-0.9-5.4h0l-0.9,5.4h-1.3L294.4,34.9z M303.6,43h-1.3l1.8-8.1h1.5l1.8,8.1h-1.5
	l-0.4-1.8H304L303.6,43z M305.2,39.4c-0.2-0.9-0.3-1.4-0.4-2.6h0c-0.1,1.2-0.3,1.7-0.4,2.6l-0.1,0.8h1.2L305.2,39.4z M313.1,43h-1.5
	l-1-2.9H310V43h-1.5v-8.1h2c1.5,0,2.5,0.7,2.5,2.6c0.1,0.9-0.3,1.7-1,2.2L313.1,43z M310.5,38.9c0.7,0,1-0.3,1-1.4
	c0-1-0.3-1.3-1-1.3H310v2.7H310.5L310.5,38.9z M314.4,34.9h3.8v1.3h-2.2v1.9h1.6v1.2h-1.6v2.4h2.3V43h-3.9V34.9L314.4,34.9z
	 M72.1,22.8c0-5.1,1.7-7.1,4.4-7.1c2.7,0,3.8,1.7,4,5.1L78,21c-0.2-2.2-0.6-3-1.5-3c-1.3,0-1.7,1.5-1.7,4.8c0,3.4,0.5,4.9,1.7,4.9
	c1,0,1.4-0.7,1.6-3.1l2.5,0.2c-0.3,2.8-1.3,5.1-4.1,5.1C73.7,29.9,72.1,27.9,72.1,22.8z M82.3,22.8c0-5.1,1.8-7.1,4.5-7.1
	c2.7,0,4.5,2.1,4.5,7.1s-1.8,7.1-4.5,7.1C84.1,29.9,82.3,27.9,82.3,22.8L82.3,22.8z M88.6,22.8c0-3.2-0.5-4.8-1.8-4.8
	S85,19.6,85,22.8s0.5,4.8,1.8,4.8S88.6,26.1,88.6,22.8L88.6,22.8z M93.5,15.8h3.2l1.8,9.9h0.1l1.8-9.9h3.2v14h-2.4v-9.9h-0.1
	c-0.1,1.2-0.3,2.4-0.6,3.6l-1.2,6.3h-2l-1.2-6.5c-0.2-1.1-0.5-2.4-0.6-3.4h-0.1v9.9h-2.1L93.5,15.8L93.5,15.8z M106.3,15.8h3.3
	c2.3,0,4.4,0.9,4.4,4.5c0,3.9-2.3,4.7-4.5,4.7h-0.6v4.8h-2.6L106.3,15.8L106.3,15.8z M109.7,22.9c1.2,0,1.7-0.6,1.7-2.4
	c0-1.8-0.5-2.3-1.7-2.3h-0.8v4.8H109.7L109.7,22.9z M116,25.4v-9.6h2.7v9.4c0,1.8,0.4,2.5,1.4,2.5c1,0,1.4-0.7,1.4-2.5v-9.4h2.5v9.5
	c0,3-1,4.6-3.9,4.6C117.1,29.9,116,28.3,116,25.4L116,25.4z M128.3,18.1h-2.5v-2.3h7.7v2.3h-2.5v11.7h-2.7L128.3,18.1L128.3,18.1z
	 M135.4,15.8h6.5v2.3h-3.9v3.3h2.8v2.1h-2.8v4.1h4v2.2h-6.7L135.4,15.8L135.4,15.8z M152.2,29.8h-2.6l-1.8-5h-0.9v5h-2.6v-14h3.5
	c2.6,0,4.3,1.3,4.3,4.4c0.1,1.5-0.6,2.9-1.8,3.8L152.2,29.8z M147.7,22.7c1.1,0,1.7-0.5,1.7-2.4c0-1.8-0.5-2.2-1.7-2.2h-0.8v4.6
	L147.7,22.7L147.7,22.7z M153.9,25.7l2.3-0.4c0.3,1.5,0.8,2.5,1.9,2.5c0.7,0,1.2-0.5,1.3-1.1c0-0.1,0-0.1,0-0.2
	c0-2.4-5.1-3.4-5.1-7.3c-0.1-1.9,1.4-3.5,3.3-3.6c0.2,0,0.3,0,0.5,0c2.4,0,3.3,1.5,3.9,3.9l-2.4,0.6c-0.3-1.5-0.7-2.2-1.6-2.2
	c-0.6,0-1,0.4-1.1,0.9c0,0.1,0,0.1,0,0.2c0,2.4,5.1,3.4,5.1,7.3c0,2-1.5,3.6-3.5,3.7c-0.1,0-0.3,0-0.4,0
	C155.2,30,154.3,28.2,153.9,25.7L153.9,25.7z M173.4,23.6c0.4,0.6,0.8,1.2,1.3,1.8c0.3-0.9,0.5-1.9,0.5-2.9h2.2
	c-0.1,1.5-0.5,3-1,4.4c0.5,0.4,1,0.6,1.6,0.7v2.3c-1.1-0.1-2.1-0.4-3-1.1c-0.9,0.8-2,1.2-3.1,1.2c-2.6,0-4-1.3-4-3.5
	c0-1.7,0.9-3.3,2.4-4.2c-0.5-1-0.7-2.1-0.8-3.2c-0.2-1.7,1-3.2,2.7-3.4c0.1,0,0.3,0,0.4,0c1.4-0.2,2.7,0.8,2.9,2.2
	c0,0.2,0,0.3,0,0.5c0,2-1.3,3-2.6,4.1C173,22.9,173.2,23.2,173.4,23.6L173.4,23.6z M171.6,25.2c-0.2-0.3-0.4-0.6-0.6-0.9
	c-0.5,0.6-0.8,1.3-0.8,2c-0.1,0.9,0.5,1.6,1.4,1.7c0.1,0,0.2,0,0.3,0c0.5,0,1-0.2,1.3-0.6C172.7,26.7,172.1,25.9,171.6,25.2
	L171.6,25.2z M173.2,18.6c0.1-0.4-0.1-0.8-0.6-1c0,0-0.1,0-0.1,0c-0.6,0.1-0.9,0.6-0.9,1.1c0,0,0,0.1,0,0.1c0,0.7,0.2,1.4,0.4,2.1
	C172.7,20.4,173.2,19.5,173.2,18.6L173.2,18.6z M183.4,25.7l2.3-0.4c0.3,1.5,0.8,2.5,1.9,2.5c0.7,0,1.2-0.5,1.3-1.1
	c0-0.1,0-0.1,0-0.2c0-2.4-5.1-3.4-5.1-7.3c-0.1-1.9,1.4-3.5,3.3-3.6c0.2,0,0.3,0,0.5,0c2.4,0,3.3,1.5,3.9,3.9l-2.4,0.6
	c-0.3-1.5-0.7-2.2-1.6-2.2c-0.6,0-1,0.4-1.1,0.9c0,0.1,0,0.1,0,0.2c0,2.4,5.1,3.4,5.1,7.3c0,2-1.5,3.6-3.5,3.7c-0.1,0-0.3,0-0.4,0
	C184.8,30,183.9,28.2,183.4,25.7L183.4,25.7z M195.5,18.1H193v-2.3h7.7v2.3h-2.5v11.7h-2.7L195.5,18.1L195.5,18.1z M210.6,29.8H208
	l-1.8-5h-0.9v5h-2.6v-14h3.5c2.6,0,4.3,1.3,4.3,4.4c0.1,1.5-0.6,2.9-1.8,3.8L210.6,29.8z M206.1,22.7c1.1,0,1.7-0.5,1.7-2.4
	c0-1.8-0.5-2.2-1.7-2.2h-0.8v4.6L206.1,22.7L206.1,22.7z M212.7,25.4v-9.6h2.7v9.4c0,1.8,0.4,2.5,1.4,2.5c1,0,1.4-0.7,1.4-2.5v-9.4
	h2.5v9.5c0,3-1,4.6-3.9,4.6C213.8,29.9,212.7,28.3,212.7,25.4L212.7,25.4z M222.7,22.8c0-5.1,1.7-7.1,4.4-7.1c2.7,0,3.8,1.7,4,5.1
	l-2.5,0.2c-0.2-2.2-0.6-3-1.5-3c-1.3,0-1.7,1.5-1.7,4.8c0,3.4,0.5,4.9,1.7,4.9c1,0,1.4-0.7,1.6-3.1l2.5,0.2
	c-0.3,2.8-1.3,5.1-4.1,5.1C224.3,29.9,222.7,27.9,222.7,22.8L222.7,22.8z M235.2,18.1h-2.5v-2.3h7.7v2.3h-2.5v11.7h-2.7L235.2,18.1
	L235.2,18.1z M242.2,25.4v-9.6h2.7v9.4c0,1.8,0.4,2.5,1.4,2.5c1,0,1.4-0.7,1.4-2.5v-9.4h2.5v9.5c0,3-1,4.6-3.9,4.6
	C243.3,29.9,242.2,28.3,242.2,25.4L242.2,25.4z M260.6,29.8H258l-1.8-5h-0.9v5h-2.6v-14h3.5c2.6,0,4.3,1.3,4.3,4.4
	c0.1,1.5-0.6,2.9-1.8,3.8L260.6,29.8z M256.1,22.7c1.1,0,1.7-0.5,1.7-2.4c0-1.8-0.5-2.2-1.7-2.2h-0.8v4.6L256.1,22.7L256.1,22.7z
	 M262.8,15.8h6.5v2.3h-3.9v3.3h2.8v2.1h-2.8v4.1h4v2.2h-6.7L262.8,15.8L262.8,15.8z M271.1,25.7l2.3-0.4c0.3,1.5,0.8,2.5,1.9,2.5
	c0.7,0,1.2-0.5,1.3-1.1c0-0.1,0-0.1,0-0.2c0-2.4-5.1-3.4-5.1-7.3c-0.1-1.9,1.4-3.5,3.3-3.6c0.2,0,0.3,0,0.5,0c2.4,0,3.3,1.5,3.9,3.9
	l-2.4,0.6c-0.3-1.5-0.7-2.2-1.6-2.2c-0.6,0-1,0.4-1.1,0.9c0,0.1,0,0.1,0,0.2c0,2.4,5.1,3.4,5.1,7.3c0,2-1.5,3.6-3.5,3.7
	c-0.1,0-0.3,0-0.4,0C272.5,30,271.6,28.2,271.1,25.7L271.1,25.7z M282.4,29.8h-1.2V27h2.9v2.6l-1.2,2.5h-1.2L282.4,29.8z
	 M289.2,15.8h2.7v14h-2.7V15.8L289.2,15.8z M294.6,15.8h2.8l2.3,5.9c0.4,1.1,0.7,2,0.9,2.8h0.1v-8.7h2.1v14h-2.3l-2.8-6.8
	c-0.4-1-0.8-2.2-1-2.7h-0.1v9.5h-2.1L294.6,15.8L294.6,15.8z M304.9,22.8c0-5.1,1.7-7.1,4.4-7.1c2.7,0,3.8,1.7,4,5.1l-2.5,0.2
	c-0.2-2.2-0.5-3-1.5-3c-1.3,0-1.7,1.5-1.7,4.8c0,3.4,0.5,4.9,1.7,4.9c1,0,1.4-0.7,1.6-3.1l2.5,0.2c-0.3,2.8-1.3,5.1-4.1,5.1
	C306.6,29.9,305,27.9,304.9,22.8L304.9,22.8z M315.4,27h2.9v2.8h-2.9V27L315.4,27z"/>
</svg>
