<?xml version="1.0" encoding="utf-8"?>
<!-- Generator: Adobe Illustrator 21.1.0, SVG Export Plug-In . SVG Version: 6.00 Build 0)  -->
<svg version="1.1" id="Layer_1" xmlns="http://www.w3.org/2000/svg" xmlns:xlink="http://www.w3.org/1999/xlink" x="0px" y="0px"
	 width="150px" height="62px" viewBox="0 0 150 62" style="enable-background:new 0 0 150 62;" xml:space="preserve">
<style type="text/css">
	.st0{fill:#005B94;}
	.st1{fill:#878787;}
</style>
<g>
	<rect x="18.1" y="9.8" class="st0" width="13.9" height="39.9"/>
	<rect x="36.3" y="18.3" class="st0" width="13.9" height="31.3"/>
	<path class="st0" d="M81.7,49.7h-9.5l-9.8-12.5h-0.1v12.5h-7.8l0-31.1h10.6c7.9,0,13.4,2.7,13.4,9.4c0,4-2.8,7.9-8.2,8.6L81.7,49.7
		z M62.4,32.9h1c4.3,0,7.4-1,7.4-4.8c0-3.8-3.2-4.6-7.3-4.6h-1.1L62.4,32.9z"/>
	<path class="st0" d="M92,49.7h-7.9l0-31.1H92L92,49.7z"/>
	<path class="st0" d="M112.8,25.4c-1.4-1.6-3.2-2.6-5.6-2.5c-2.3,0-4.6,1.5-4.6,3.5c0,5.2,14.8,3,14.8,13.5
		c0,6.2-4.7,10.6-12.3,10.6c-5.2,0-8.9-2.5-11.5-6.1l4.7-3.8c1,2.4,3.6,4.5,6.7,4.5c3,0,4.8-2.1,4.8-4.5c0-3.2-3.6-4.1-6.5-5.1
		c-4.8-1.7-8.3-3.7-8.3-8.5c0-5.1,4.6-9.3,10.9-9.3c3.3,0,7.9,1.4,10.2,3.5L112.8,25.4z"/>
	<path class="st0" d="M126.9,43.1l-3,6.6h-7.5l14.2-31.9h5.5L150,49.7h-7.6l-2.8-6.6L126.9,43.1z M133.1,26.9H133l-4,11.3h8.7
		L133.1,26.9z"/>
	<g>
		<path class="st0" d="M142.2,17.3c1.3,0,2.3,1,2.3,2.3c0,1.3-1.1,2.3-2.3,2.3c-1.3,0-2.4-1-2.4-2.3C139.9,18.3,141,17.3,142.2,17.3
			z M142.2,21.6c1.1,0,1.9-0.9,1.9-2c0-1.1-0.8-2-1.9-2c-1.1,0-1.9,0.9-1.9,2C140.3,20.8,141.1,21.6,142.2,21.6z M141.3,18.3h1.1
			c0.6,0,0.9,0.2,0.9,0.8c0,0.5-0.3,0.7-0.7,0.7l0.8,1.2h-0.4l-0.7-1.2h-0.4V21h-0.4V18.3z M141.8,19.5h0.4c0.4,0,0.7,0,0.7-0.5
			c0-0.4-0.3-0.4-0.6-0.4h-0.6V19.5z"/>
	</g>
	<rect class="st0" width="13.9" height="49.6"/>
</g>
<g>
	<path class="st1" d="M40.1,61.9l2.3-6h0.9l2.5,6h-0.9l-0.7-1.8h-2.5l-0.7,1.8C40.9,61.9,40.1,61.9,40.1,61.9z M41.8,59.4h2
		l-0.6-1.7c-0.2-0.5-0.3-0.9-0.4-1.2c-0.1,0.4-0.2,0.8-0.3,1.2L41.8,59.4z"/>
	<path class="st1" d="M48.2,61.9v-6H49l3.2,4.7v-4.7H53v6h-0.8L49,57.2v4.7C49,61.9,48.2,61.9,48.2,61.9z"/>
	<path class="st1" d="M54.3,61.9v-6h4.3v0.7h-3.6v1.8h3.3v0.7h-3.3v2h3.7v0.7L54.3,61.9L54.3,61.9z"/>
	<path class="st1" d="M59.9,61.9v-6h1.2l1.4,4.3c0.1,0.4,0.2,0.7,0.3,0.9c0.1-0.2,0.2-0.5,0.3-1l1.4-4.2h1.1v6h-0.8v-5l-1.8,5h-0.7
		l-1.7-5.1v5.1L59.9,61.9L59.9,61.9z"/>
	<path class="st1" d="M66.9,61.9v-6h4.3v0.7h-3.6v1.8H71v0.7h-3.3v2h3.7v0.7L66.9,61.9L66.9,61.9z"/>
	<path class="st1" d="M74,61.9v-5.3h-2v-0.7h4.8v0.7h-2v5.3H74z"/>
	<path class="st1" d="M77.3,60l0.8-0.1c0,0.3,0.1,0.5,0.2,0.7c0.1,0.2,0.3,0.3,0.6,0.5c0.3,0.1,0.6,0.2,0.9,0.2c0.3,0,0.6,0,0.8-0.1
		s0.4-0.2,0.5-0.4c0.1-0.2,0.2-0.3,0.2-0.5c0-0.2-0.1-0.3-0.2-0.5s-0.3-0.3-0.5-0.3c-0.2-0.1-0.5-0.2-1.1-0.3s-0.9-0.3-1.2-0.4
		c-0.3-0.2-0.5-0.3-0.6-0.6s-0.2-0.5-0.2-0.8c0-0.3,0.1-0.6,0.3-0.8c0.2-0.3,0.4-0.5,0.8-0.6s0.7-0.2,1.1-0.2c0.4,0,0.8,0.1,1.2,0.2
		c0.3,0.1,0.6,0.3,0.8,0.6c0.2,0.3,0.3,0.6,0.3,1l-0.8,0.1c0-0.4-0.2-0.7-0.4-0.9c-0.2-0.2-0.6-0.3-1.1-0.3c-0.5,0-0.8,0.1-1.1,0.3
		s-0.3,0.4-0.3,0.6c0,0.2,0.1,0.4,0.2,0.5s0.6,0.3,1.2,0.4c0.7,0.2,1.1,0.3,1.3,0.4c0.3,0.2,0.6,0.4,0.8,0.6
		c0.2,0.2,0.2,0.5,0.2,0.8s-0.1,0.6-0.3,0.9c-0.2,0.3-0.4,0.5-0.8,0.7c-0.3,0.2-0.7,0.2-1.2,0.2c-0.5,0-1-0.1-1.4-0.2
		s-0.7-0.4-0.9-0.7C77.5,60.7,77.4,60.4,77.3,60z"/>
	<path class="st1" d="M87.5,59.8l0.8,0.2c-0.2,0.7-0.5,1.2-0.9,1.5s-1,0.5-1.6,0.5c-0.7,0-1.2-0.1-1.6-0.4c-0.4-0.3-0.7-0.7-0.9-1.2
		c-0.2-0.5-0.3-1-0.3-1.6c0-0.6,0.1-1.2,0.4-1.6s0.6-0.8,1-1.1c0.4-0.2,0.9-0.4,1.5-0.4c0.6,0,1.1,0.2,1.5,0.5s0.7,0.7,0.9,1.3
		l-0.8,0.2c-0.1-0.4-0.3-0.8-0.6-1c-0.3-0.2-0.6-0.3-1-0.3c-0.5,0-0.8,0.1-1.2,0.3s-0.5,0.5-0.7,0.9c-0.1,0.4-0.2,0.8-0.2,1.2
		c0,0.5,0.1,1,0.2,1.3s0.4,0.7,0.7,0.8c0.3,0.2,0.7,0.3,1,0.3c0.4,0,0.8-0.1,1.1-0.4S87.4,60.3,87.5,59.8z"/>
	<path class="st1" d="M89.3,61.9v-6h0.8v2.5h3.1v-2.5H94v6h-0.8v-2.8h-3.1v2.8C90.1,61.9,89.3,61.9,89.3,61.9z"/>
	<path class="st1" d="M95.4,61.9v-6h4.3v0.7h-3.6v1.8h3.3v0.7h-3.3v2h3.7v0.7L95.4,61.9L95.4,61.9z"/>
	<path class="st1" d="M100.9,61.9v-6h0.8v3l3-3h1.1l-2.5,2.4l2.6,3.6h-1.1l-2.1-3l-1,1v2.1L100.9,61.9L100.9,61.9z"/>
	<path class="st1" d="M113.2,59.8L114,60c-0.2,0.7-0.5,1.2-0.9,1.5s-1,0.5-1.6,0.5c-0.7,0-1.2-0.1-1.6-0.4c-0.4-0.3-0.7-0.7-0.9-1.2
		c-0.2-0.5-0.3-1-0.3-1.6c0-0.6,0.1-1.2,0.4-1.6s0.6-0.8,1-1.1c0.4-0.2,0.9-0.4,1.5-0.4c0.6,0,1.1,0.2,1.5,0.5s0.7,0.7,0.9,1.3
		l-0.8,0.2c-0.1-0.4-0.3-0.8-0.6-1c-0.3-0.2-0.6-0.3-1-0.3c-0.5,0-0.8,0.1-1.2,0.3c-0.3,0.2-0.5,0.5-0.7,0.9
		c-0.1,0.4-0.2,0.8-0.2,1.2c0,0.5,0.1,1,0.2,1.3s0.4,0.7,0.7,0.8c0.3,0.2,0.7,0.3,1,0.3c0.4,0,0.8-0.1,1.1-0.4
		S113.1,60.3,113.2,59.8z"/>
	<path class="st1" d="M114.7,59c0-1,0.3-1.8,0.8-2.3c0.5-0.6,1.2-0.8,2.1-0.8c0.6,0,1.1,0.1,1.5,0.4c0.4,0.3,0.8,0.6,1,1.1
		c0.2,0.5,0.3,1,0.3,1.6c0,0.6-0.1,1.2-0.4,1.6c-0.2,0.5-0.6,0.8-1.1,1.1c-0.4,0.2-0.9,0.4-1.5,0.4c-0.6,0-1.1-0.1-1.5-0.4
		s-0.8-0.7-1-1.1S114.7,59.5,114.7,59z M115.5,59c0,0.7,0.2,1.3,0.6,1.7s0.9,0.6,1.5,0.6c0.6,0,1.1-0.2,1.5-0.6
		c0.4-0.4,0.6-1,0.6-1.8c0-0.5-0.1-0.9-0.2-1.3s-0.4-0.7-0.7-0.8c-0.3-0.2-0.7-0.3-1.1-0.3c-0.6,0-1.1,0.2-1.4,0.6
		C115.7,57.4,115.5,58.1,115.5,59z"/>
	<path class="st1" d="M121.4,61.9v-6h1.2l1.4,4.3c0.1,0.4,0.2,0.7,0.3,0.9c0.1-0.2,0.2-0.5,0.3-1l1.4-4.2h1.1v6h-0.8v-5l-1.8,5h-0.7
		l-1.7-5.1v5.1L121.4,61.9L121.4,61.9z"/>
	<path class="st1" d="M128.5,61.9v-6h2.3c0.4,0,0.7,0,0.9,0.1c0.3,0,0.5,0.1,0.7,0.3c0.2,0.1,0.4,0.3,0.5,0.6s0.2,0.5,0.2,0.8
		c0,0.5-0.2,0.9-0.5,1.3c-0.3,0.3-0.9,0.5-1.8,0.5h-1.5v2.4H128.5z M129.3,58.7h1.6c0.5,0,0.9-0.1,1.1-0.3c0.2-0.2,0.3-0.5,0.3-0.8
		c0-0.2-0.1-0.5-0.2-0.7s-0.3-0.3-0.5-0.3c-0.1,0-0.4,0-0.7,0h-1.5L129.3,58.7L129.3,58.7z"/>
	<path class="st1" d="M132.8,61.9l2.3-6h0.9l2.5,6h-0.9l-0.7-1.8h-2.5l-0.7,1.8C133.6,61.9,132.8,61.9,132.8,61.9z M134.5,59.4h2
		l-0.6-1.7c-0.2-0.5-0.3-0.9-0.4-1.2c-0.1,0.4-0.2,0.8-0.3,1.2L134.5,59.4z"/>
	<path class="st1" d="M139,61.9v-6h0.8l3.2,4.7v-4.7h0.8v6H143l-3.2-4.7v4.7C139.8,61.9,139,61.9,139,61.9z"/>
	<path class="st1" d="M146.8,61.9v-2.5l-2.3-3.5h1l1.2,1.8c0.2,0.3,0.4,0.7,0.6,1c0.2-0.3,0.4-0.7,0.7-1.1l1.2-1.8h0.9l-2.4,3.5v2.5
		H146.8z"/>
</g>
</svg>
