<?xml version="1.0" encoding="UTF-8"?>
<svg xmlns="http://www.w3.org/2000/svg" id="Layer_1" style="" viewBox="0 0 403.94 57.83" x="0px" y="0px">
  <style type="text/css">	.st0{fill:#E1251B;}</style>
  <g>	<g>		<g>			<path class="st0" d="M45.44,57.01l-4.73-11.72H17.5l-4.66,11.72H0L22.91,0.83H35.3l22.98,56.18H45.44z M36.65,35.15l-7.51-18.78     l-7.59,18.78H36.65z"/>			<path class="st0" d="M104.87,57.01L94.21,24.48L83.47,57.01H71.45L51.47,0.83h12.62l13.52,39.51L89.48,0.83h9.46l11.79,39.51     l13.59-39.51h12.54l-19.98,56.18H104.87z"/>			<path class="st0" d="M178.23,3.45l-0.9,11.04c-3.08-2.4-7.14-3.98-12.69-3.98c-9.99,0-16.67,7.14-16.67,18.4     c0,11.34,6.76,18.4,16.75,18.4c5.56,0,9.84-1.5,12.92-3.91l0.9,10.97c-3.83,2.18-8.49,3.45-14.65,3.45     c-15.02,0-27.94-10.06-27.94-28.92C135.94,10.14,148.79,0,163.81,0C169.97,0,174.47,1.35,178.23,3.45z"/>			<path class="st0" d="M183.89,57.01V0.83h11.79v56.18H183.89z"/>		</g>	</g>	<g>		<path d="M215.92,10.4l-0.9-2.22h-3.86l-0.89,2.22h-1.61l3.66-8.97h1.54l3.67,8.97H215.92z M214.52,6.91l-1.43-3.54l-1.43,3.54    H214.52z"/>		<path d="M228,1.8l-0.2,1.39c-0.62-0.32-1.43-0.56-2.3-0.56c-1.2,0-1.74,0.44-1.74,1.21c0,0.9,0.74,0.98,2.03,1.36    c1.75,0.49,2.67,1.07,2.67,2.58c0,1.71-1.27,2.76-3.35,2.76c-1.13,0-2.16-0.19-3.03-0.64l0.18-1.44c0.67,0.42,1.66,0.76,2.81,0.76    c1.16,0,1.88-0.38,1.88-1.28c0-0.84-0.64-1.07-2.05-1.43c-1.66-0.47-2.65-0.97-2.65-2.54c0-1.62,1.1-2.65,3.23-2.65    C226.39,1.3,227.21,1.47,228,1.8z"/>		<path d="M239.15,1.8l-0.2,1.39c-0.62-0.32-1.43-0.56-2.3-0.56c-1.2,0-1.74,0.44-1.74,1.21c0,0.9,0.74,0.98,2.03,1.36    c1.75,0.49,2.67,1.07,2.67,2.58c0,1.71-1.27,2.76-3.35,2.76c-1.13,0-2.16-0.19-3.03-0.64l0.18-1.44c0.67,0.42,1.66,0.76,2.81,0.76    c1.16,0,1.88-0.38,1.88-1.28c0-0.84-0.64-1.07-2.05-1.43c-1.66-0.47-2.65-0.97-2.65-2.54c0-1.62,1.1-2.65,3.23-2.65    C237.54,1.3,238.36,1.47,239.15,1.8z"/>		<path d="M252.96,5.9c0,2.87-1.8,4.62-4.34,4.62c-2.52,0-4.33-1.75-4.33-4.62s1.8-4.59,4.33-4.59    C251.16,1.3,252.96,3.03,252.96,5.9z M245.8,5.9c0,2.12,1.16,3.3,2.82,3.3c1.66,0,2.83-1.18,2.83-3.3c0-2.09-1.18-3.27-2.83-3.27    C246.99,2.62,245.8,3.81,245.8,5.9z"/>		<path d="M264.39,1.9l-0.11,1.39c-0.55-0.41-1.24-0.67-2.18-0.67c-1.75,0-2.95,1.27-2.95,3.29c0,2.03,1.24,3.29,2.97,3.29    c0.95,0,1.67-0.25,2.22-0.66l0.11,1.38c-0.64,0.37-1.4,0.6-2.43,0.6c-2.36,0-4.38-1.64-4.38-4.61c0-2.95,1.98-4.61,4.35-4.61    C263.01,1.3,263.75,1.53,264.39,1.9z"/>		<path d="M269.3,10.4V1.42h1.48v8.97H269.3z"/>		<path d="M282.72,10.4l-0.9-2.22h-3.86l-0.89,2.22h-1.61l3.66-8.97h1.54l3.67,8.97H282.72z M281.32,6.91l-1.43-3.54l-1.43,3.54    H281.32z"/>		<path d="M291.76,2.73v7.66h-1.49V2.73h-3.17V1.42h7.82v1.31H291.76z"/>		<path d="M299.64,10.4V1.42h1.48v8.97H299.64z"/>		<path d="M314.88,5.9c0,2.87-1.8,4.62-4.34,4.62c-2.52,0-4.33-1.75-4.33-4.62s1.8-4.59,4.33-4.59    C313.08,1.3,314.88,3.03,314.88,5.9z M307.72,5.9c0,2.12,1.16,3.3,2.82,3.3c1.66,0,2.83-1.18,2.83-3.3c0-2.09-1.18-3.27-2.83-3.27    C308.9,2.62,307.72,3.81,307.72,5.9z"/>		<path d="M325.61,10.4l-4.15-6.19v6.19h-1.48V1.42h1.39l4.15,6.22V1.42H327v8.97H325.61z"/>		<path d="M349.29,5.9c0,2.87-1.8,4.62-4.34,4.62c-2.52,0-4.33-1.75-4.33-4.62s1.8-4.59,4.33-4.59    C347.49,1.3,349.29,3.03,349.29,5.9z M342.13,5.9c0,2.12,1.16,3.3,2.82,3.3c1.65,0,2.83-1.18,2.83-3.3c0-2.09-1.18-3.27-2.83-3.27    C343.31,2.62,342.13,3.81,342.13,5.9z"/>		<path d="M355.87,2.73v2.43h3.5v1.31h-3.5v3.92h-1.48V1.42h5.71v1.31H355.87z"/>		<path d="M377.4,2.73v7.66h-1.49V2.73h-3.17V1.42h7.82v1.31H377.4z"/>		<path d="M390.9,10.4V6.43h-4.15v3.97h-1.48V1.42h1.48v3.68h4.15V1.42h1.49v8.97H390.9z"/>		<path d="M399.37,2.73v2.4h3.71v1.28h-3.71v2.66h4.23v1.32h-5.71V1.42h5.71v1.31H399.37z"/>		<path class="st0" d="M217.44,33.4l-2-5.95l-2.01,5.95h-1.5l-3.18-8.97h1.57l2.35,6.71l2.17-6.71h1.19l2.16,6.71l2.36-6.71h1.57    l-3.19,8.97H217.44z"/>		<path class="st0" d="M233.93,33.4l-0.9-2.22h-3.86l-0.89,2.22h-1.61l3.66-8.97h1.54l3.67,8.97H233.93z M232.53,29.91l-1.43-3.54    l-1.43,3.54H232.53z"/>		<path class="st0" d="M247.36,32.08v1.32h-5.68v-8.97h1.48v7.65H247.36z"/>		<path class="st0" d="M259.28,32.08v1.32h-5.68v-8.97h1.48v7.65H259.28z"/>		<path class="st0" d="M282.68,33.4l-0.9-2.22h-3.86l-0.89,2.22h-1.61l3.66-8.97h1.54l3.67,8.97H282.68z M281.28,29.91l-1.43-3.54    l-1.43,3.54H281.28z"/>		<path class="st0" d="M296.05,33.4l-4.15-6.19v6.19h-1.48v-8.97h1.39l4.15,6.22v-6.22h1.48v8.97H296.05z"/>		<path class="st0" d="M307.52,24.42c2.61,0,4.43,1.5,4.43,4.5c0,2.99-1.82,4.47-4.43,4.47h-3.14v-8.97H307.52z M305.84,32.08h1.67    c1.74,0,2.93-1,2.93-3.15c0-2.21-1.19-3.19-2.93-3.19h-1.67V32.08z"/>		<path class="st0" d="M335.35,24.9l-0.11,1.39c-0.55-0.41-1.24-0.67-2.18-0.67c-1.75,0-2.95,1.27-2.95,3.29    c0,2.03,1.24,3.29,2.97,3.29c0.95,0,1.67-0.25,2.22-0.66l0.11,1.38c-0.64,0.37-1.4,0.6-2.43,0.6c-2.36,0-4.38-1.64-4.38-4.61    c0-2.95,1.98-4.61,4.35-4.61C333.97,24.3,334.71,24.53,335.35,24.9z"/>		<path class="st0" d="M343.13,25.73v2.4h3.71v1.28h-3.71v2.66h4.23v1.32h-5.71v-8.97h5.71v1.31H343.13z"/>		<path class="st0" d="M353.83,33.4v-8.97h1.48v8.97H353.83z"/>		<path class="st0" d="M367.9,32.08v1.32h-5.69v-8.97h1.48v7.65H367.9z"/>		<path class="st0" d="M374.13,33.4v-8.97h1.48v8.97H374.13z"/>		<path class="st0" d="M388.14,33.4l-4.15-6.19v6.19h-1.48v-8.97h1.39l4.15,6.22v-6.22h1.48v8.97H388.14z"/>		<path class="st0" d="M402.98,24.93l-0.11,1.38c-0.56-0.41-1.33-0.68-2.28-0.68c-1.76,0-3.02,1.27-3.02,3.29    c0,2.03,1.17,3.29,2.83,3.29c0.61,0,1.06-0.12,1.49-0.34v-1.75h-1.92v-1.28h3.32v3.9c-0.85,0.47-1.67,0.79-2.99,0.79    c-2.29,0-4.25-1.64-4.25-4.61c0-2.95,2.03-4.61,4.44-4.61C401.5,24.3,402.33,24.56,402.98,24.93z"/>		<path d="M209.43,56.4v-8.97h1.48v8.97H209.43z"/>		<path d="M237.45,56.4l-4.15-6.19v6.19h-1.48v-8.97h1.39l4.15,6.22v-6.22h1.48v8.97H237.45z"/>		<path d="M262.92,47.42c2.61,0,4.43,1.5,4.43,4.5c0,2.99-1.82,4.47-4.43,4.47h-3.14v-8.97H262.92z M261.24,55.08h1.67    c1.74,0,2.93-1,2.93-3.15c0-2.21-1.19-3.19-2.93-3.19h-1.67V55.08z"/>		<path d="M295.19,52.88c0,2.33-1.44,3.63-3.71,3.63c-2.28,0-3.69-1.31-3.69-3.63v-5.46h1.48v5.43c0,1.55,0.8,2.34,2.22,2.34    c1.4,0,2.22-0.79,2.22-2.34v-5.43h1.49V52.88z"/>		<path d="M321.58,47.8l-0.2,1.39c-0.62-0.32-1.43-0.56-2.3-0.56c-1.2,0-1.74,0.44-1.74,1.21c0,0.9,0.74,0.98,2.03,1.36    c1.75,0.49,2.67,1.07,2.67,2.58c0,1.71-1.27,2.76-3.35,2.76c-1.13,0-2.16-0.19-3.03-0.64l0.18-1.44c0.67,0.42,1.66,0.76,2.81,0.76    c1.16,0,1.88-0.38,1.88-1.28c0-0.84-0.64-1.07-2.05-1.43c-1.66-0.47-2.65-0.97-2.65-2.54c0-1.62,1.1-2.65,3.23-2.65    C319.98,47.3,320.79,47.47,321.58,47.8z"/>		<path d="M346.45,48.73v7.66h-1.49v-7.66h-3.17v-1.31h7.82v1.31H346.45z"/>		<path d="M372.98,52.89h-1.74v3.5h-1.48v-8.97h3.31c1.78,0,2.97,0.92,2.97,2.73c0,1.28-0.59,2.09-1.52,2.47l2.05,3.77h-1.67    L372.98,52.89z M372.98,51.59c0.91,0,1.56-0.49,1.56-1.43c0-0.97-0.65-1.43-1.56-1.43h-1.75v2.85H372.98z"/>		<path d="M400.54,56.4h-1.46v-3.47l-3.41-5.5h1.74l2.4,3.92l2.39-3.92h1.74l-3.39,5.5V56.4z"/>	</g>
  </g>
<script xmlns=""/></svg>