<svg width="51" height="95" viewBox="0 0 51 95" fill="none" xmlns="http://www.w3.org/2000/svg">
<g id="Group 1">
<g id="Layer 1">
<path id="Vector" d="M4.59413 81.7013C2.58857 79.5005 1.23368 76.695 0.537707 73.7249C0.18766 72.2358 0.00645967 70.7055 0.00645967 69.167C-0.0223677 68.3978 0.0517598 67.6285 0.101178 66.8592C0.204133 66.0941 0.290615 65.329 0.46358 64.5762C0.611835 63.8193 0.842454 63.0788 1.05248 62.3383C1.32428 61.6143 1.56726 60.8821 1.90495 60.1869C2.54739 58.7883 3.31749 57.4472 4.26056 56.2419C5.19539 55.0325 6.23317 53.9136 7.41098 52.9633C7.69513 52.7206 8.00812 52.5026 8.30875 52.2805C8.60937 52.0583 8.91824 51.8444 9.24358 51.6552C9.56891 51.466 9.87366 51.2562 10.2114 51.0916C10.549 50.9271 10.8785 50.7543 11.2162 50.6062C10.7508 51.1945 10.2608 51.7292 9.82424 52.3093L9.48655 52.7288L9.16533 53.1608C8.95942 53.4528 8.7288 53.7202 8.53525 54.0205C7.71161 55.1682 6.99092 56.3694 6.33613 57.583C5.68134 58.7965 5.1295 60.047 4.66414 61.3264C4.19055 62.5975 3.80756 63.9015 3.53987 65.2261C3.2516 66.5466 3.06216 67.8918 2.9798 69.2493C2.86861 70.6068 2.88096 71.9766 2.97156 73.3506C3.15276 76.1067 3.72931 78.8629 4.59413 81.7013Z" fill="url(#paint0_linear_61_172)"/>
<path id="Vector_2" d="M22.4421 81.2735C27.8257 81.2735 32.1899 76.9141 32.1899 71.5365C32.1899 66.1589 27.8257 61.7994 22.4421 61.7994C17.0586 61.7994 12.6943 66.1589 12.6943 71.5365C12.6943 76.9141 17.0586 81.2735 22.4421 81.2735Z" fill="url(#paint1_radial_61_172)"/>
<path id="Vector_3" d="M49.9932 72.968C49.8202 74.959 49.4331 76.9541 48.7824 78.8752C48.4736 79.8378 48.07 80.7716 47.6417 81.6972C47.1887 82.6104 46.6986 83.5072 46.1303 84.3628C45.5867 85.2308 44.9402 86.0288 44.2895 86.8228C43.6059 87.5838 42.9017 88.3366 42.1192 89.0071C41.3615 89.6982 40.5255 90.3071 39.6853 90.8994C38.8246 91.463 37.9392 91.9937 37.0126 92.442C35.1759 93.3717 33.2157 94.0587 31.206 94.4701C29.2004 94.8814 27.1413 95.0707 25.111 94.9761C23.0972 94.8691 21.0876 94.6099 19.1397 94.0834C18.1636 93.8366 17.2123 93.4992 16.2734 93.1496C15.3427 92.7711 14.4284 92.3515 13.5595 91.8579C13.1189 91.6275 12.6988 91.3519 12.2787 91.0886C11.871 90.7966 11.451 90.5292 11.0639 90.2166L10.4832 89.7558C10.2938 89.5954 10.1126 89.4267 9.92725 89.2622C9.54837 88.9413 9.21892 88.5711 8.87299 88.2255C8.81122 88.1638 8.81122 88.0651 8.87299 88.0034C8.92653 87.9499 9.01301 87.9458 9.0789 87.9869C12.2046 90.2906 15.8245 91.6728 19.535 92.2816C21.3882 92.5901 23.2702 92.7218 25.1399 92.6724C26.9972 92.6395 28.8339 92.3968 30.6171 91.9278C31.5107 91.7057 32.3797 91.4136 33.2404 91.0969C34.0887 90.7513 34.9371 90.3934 35.7442 89.9615C36.5638 89.5543 37.3339 89.0524 38.0998 88.5587C38.8493 88.0322 39.5865 87.4892 40.2784 86.8927C43.0705 84.5315 45.3932 81.5614 46.9334 78.1553C48.4859 74.7657 49.1654 70.9153 48.8195 67.1266C48.4653 63.3379 47.0652 59.648 44.8331 56.571C44.273 55.8058 43.6759 55.0654 43.0211 54.3866C42.7081 54.0287 42.3539 53.7161 42.0162 53.3788C41.6662 53.062 41.3162 52.7453 40.9496 52.4491C39.4836 51.2644 37.898 50.2401 36.2014 49.4543C34.5129 48.6686 32.7421 48.0763 30.9383 47.7019C29.1633 47.3482 27.3596 47.163 25.5558 47.1918C24.7404 47.2042 24.0115 46.5748 24.0444 45.7603C24.0568 45.4106 24.135 45.0116 24.4274 44.8553C42.2963 35.3898 56.2858 16.3559 28.0226 0C58.8226 10.2101 50.4544 37.6482 28.7804 44.5262C28.7062 44.5509 28.6733 44.629 28.6239 44.6743C29.604 44.8224 30.5718 45.0281 31.5231 45.2996C33.5039 45.8343 35.3777 46.6776 37.1321 47.6855C40.6408 49.7259 43.577 52.6095 45.7514 55.9334C46.2951 56.7684 46.7934 57.6282 47.2299 58.5208L47.5635 59.1831L47.8682 59.8619C48.0823 60.3103 48.243 60.7792 48.4242 61.2359C49.0995 63.1035 49.5814 65.0369 49.8449 67.0032C50.1373 68.9695 50.1497 70.9729 49.9932 72.9639V72.968Z" fill="url(#paint2_linear_61_172)"/>
<path id="Vector_4" d="M45.9698 77.7192C47.473 74.4407 48.0948 70.8124 47.7654 67.2212C47.4277 63.6135 46.1181 60.1416 43.9766 57.188C43.3918 56.3858 42.8276 55.7071 42.2593 55.1147L42.2429 55.0983L42.2264 55.0818C42.0411 54.872 41.831 54.6705 41.6128 54.4565C41.5057 54.3537 41.3945 54.2467 41.2874 54.1398C40.9703 53.8518 40.6326 53.5474 40.2826 53.2595C38.8165 52.0788 37.2928 51.1163 35.7567 50.4046C34.1259 49.6436 32.4333 49.08 30.7201 48.7262C29.0935 48.4012 27.4832 48.2367 25.9389 48.2367C25.8154 48.2367 25.6918 48.2367 25.5683 48.2367H25.56H25.523C24.8188 48.2367 24.1393 47.9487 23.6574 47.4469C23.2003 46.9738 22.9615 46.3568 22.9862 45.7109C23.0274 44.6167 23.5215 44.1313 23.9251 43.9174C29.3117 41.0666 33.9241 37.57 37.2598 33.806C39.1625 31.6587 40.6038 29.4908 41.5757 27.3229C37.9311 31.3748 32.5116 34.4066 27.5533 37.1792C21.9484 40.3138 16.6524 43.2756 16.5371 46.5665C16.43 49.6107 18.0526 50.347 25.7248 53.3294L26.8902 53.7819C37.8735 58.0642 43.5854 64.9093 42.9718 73.0585C42.1028 84.6672 32.6351 90.5621 23.2374 91.5946C23.6039 91.6111 23.9745 91.6152 24.3411 91.6152C24.5964 91.6152 24.8517 91.6152 25.107 91.6028C26.9108 91.574 28.6693 91.3354 30.3454 90.8953C31.0949 90.7061 31.865 90.4634 32.8575 90.1014C33.5988 89.8011 34.4512 89.4432 35.2419 89.0195L35.2543 89.0112L35.2666 89.003C36.0244 88.6246 36.7368 88.1638 37.4946 87.6743H37.5028C38.1453 87.2136 38.8948 86.6706 39.5825 86.0782C42.3335 83.7499 44.5408 80.858 45.9657 77.7028L45.9698 77.7192Z" fill="url(#paint3_radial_61_172)"/>
</g>
</g>
<defs>
<linearGradient id="paint0_linear_61_172" x1="-0.00177673" y1="66.1558" x2="11.2121" y2="66.1558" gradientUnits="userSpaceOnUse">
<stop stop-color="#2F2482"/>
<stop offset="0.62" stop-color="#A51380"/>
<stop offset="1" stop-color="#E4007D"/>
</linearGradient>
<radialGradient id="paint1_radial_61_172" cx="0" cy="0" r="1" gradientUnits="userSpaceOnUse" gradientTransform="translate(17.2902 66.7893) scale(16.9381 16.9195)">
<stop stop-color="white"/>
<stop offset="0.06" stop-color="#F5AAEC"/>
<stop offset="0.11" stop-color="#ED61DC"/>
<stop offset="0.15" stop-color="#E72CD0"/>
<stop offset="0.18" stop-color="#E40CC9"/>
<stop offset="0.2" stop-color="#E300C7"/>
<stop offset="0.33" stop-color="#D301BD"/>
<stop offset="0.52" stop-color="#B603AB"/>
<stop offset="0.57" stop-color="#A707A5"/>
<stop offset="0.67" stop-color="#801395"/>
<stop offset="0.78" stop-color="#512382"/>
<stop offset="1" stop-color="#291F71"/>
</radialGradient>
<linearGradient id="paint2_linear_61_172" x1="8.81945" y1="47.5004" x2="50.092" y2="47.5004" gradientUnits="userSpaceOnUse">
<stop stop-color="#2F2482"/>
<stop offset="0.62" stop-color="#A51380"/>
<stop offset="1" stop-color="#E4007D"/>
</linearGradient>
<radialGradient id="paint3_radial_61_172" cx="0" cy="0" r="1" gradientUnits="userSpaceOnUse" gradientTransform="translate(32.1903 59.4793) scale(25.3104 25.2825)">
<stop stop-color="#FFEC00"/>
<stop offset="0.3" stop-color="#FFCB00"/>
<stop offset="1" stop-color="#EE7C00"/>
</radialGradient>
</defs>
</svg>
