<svg width="625" height="470" viewBox="0 0 625 470" fill="none" xmlns="http://www.w3.org/2000/svg">
<path d="M22.6496 404.206C12.762 393.318 6.08221 379.438 2.65096 364.744C0.925188 357.377 0.0318469 349.806 0.0318469 342.195C-0.110276 338.389 0.255182 334.583 0.498821 330.777C1.0064 326.992 1.43277 323.206 2.2855 319.482C3.01642 315.737 4.1534 312.074 5.18886 308.411C6.52888 304.829 7.72677 301.206 9.39163 297.767C12.5589 290.847 16.3556 284.212 21.0051 278.249C25.6139 272.266 30.7303 266.73 36.537 262.029C37.938 260.828 39.481 259.75 40.9631 258.651C42.4453 257.552 43.968 256.493 45.572 255.557C47.1759 254.621 48.6784 253.583 50.3432 252.769C52.0081 251.955 53.6323 251.1 55.2972 250.367C53.0029 253.278 50.5869 255.923 48.4347 258.793L46.7699 260.869L45.1862 263.006C44.171 264.451 43.0341 265.774 42.0798 267.259C38.0192 272.938 34.4661 278.88 31.2379 284.884C28.0097 290.888 25.289 297.075 22.9948 303.404C20.6599 309.693 18.7717 316.144 17.452 322.698C16.0308 329.231 15.0968 335.886 14.6908 342.602C14.1426 349.318 14.2035 356.095 14.6502 362.892C15.5435 376.528 18.386 390.164 22.6496 404.206Z" fill="url(#paint0_linear_506_3138)"/>
<path d="M110.644 402.09C137.186 402.09 158.702 380.522 158.702 353.917C158.702 327.312 137.186 305.745 110.644 305.745C84.1026 305.745 62.5864 327.312 62.5864 353.917C62.5864 380.522 84.1026 402.09 110.644 402.09Z" fill="url(#paint1_radial_506_3138)"/>
<path d="M246.956 361C246.103 370.85 244.195 380.72 240.987 390.225C239.464 394.987 237.474 399.607 235.363 404.186C233.13 408.704 230.713 413.141 227.912 417.374C225.232 421.668 222.044 425.616 218.836 429.544C215.466 433.309 211.994 437.034 208.136 440.351C204.4 443.77 200.279 446.782 196.137 449.713C191.894 452.501 187.528 455.126 182.96 457.345C173.905 461.944 164.241 465.343 154.333 467.378C144.445 469.413 134.293 470.35 124.284 469.882C114.356 469.352 104.448 468.07 94.8443 465.465C90.0325 464.244 85.3424 462.575 80.7133 460.845C76.1248 458.973 71.6174 456.897 67.3335 454.455C65.161 453.315 63.0901 451.952 61.0192 450.649C59.0092 449.204 56.9382 447.881 55.0297 446.335L52.167 444.055C51.233 443.261 50.3397 442.427 49.426 441.613C47.5581 440.025 45.9339 438.194 44.2284 436.484C43.9239 436.179 43.9239 435.691 44.2284 435.385C44.4924 435.121 44.9187 435.1 45.2436 435.304C60.6537 446.701 78.5002 453.539 96.7934 456.551C105.93 458.077 115.208 458.729 124.426 458.484C133.583 458.322 142.638 457.121 151.429 454.801C155.835 453.702 160.119 452.257 164.363 450.69C168.545 448.98 172.727 447.21 176.707 445.073C180.747 443.058 184.544 440.575 188.32 438.133C192.016 435.528 195.65 432.841 199.061 429.89C212.826 418.208 224.277 403.514 231.871 386.663C239.525 369.893 242.875 350.844 241.17 332.1C239.424 313.356 232.52 295.101 221.516 279.877C218.755 276.092 215.811 272.429 212.583 269.071C211.04 267.3 209.294 265.753 207.629 264.084C205.903 262.517 204.177 260.95 202.37 259.485C195.142 253.624 187.325 248.556 178.961 244.669C170.636 240.782 161.906 237.851 153.013 235.999C144.262 234.249 135.37 233.333 126.477 233.475C122.457 233.536 118.863 230.423 119.025 226.393C119.086 224.663 119.472 222.689 120.914 221.916C209.009 175.086 277.979 80.9186 138.638 0C290.486 50.5131 249.23 186.259 142.374 220.287C142.009 220.41 141.846 220.796 141.603 221.02C146.435 221.753 151.206 222.77 155.896 224.114C165.662 226.759 174.9 230.931 183.549 235.918C200.847 246.012 215.324 260.279 226.044 276.723C228.724 280.854 231.18 285.108 233.333 289.524L234.977 292.801L236.48 296.159C237.535 298.377 238.327 300.697 239.22 302.956C242.55 312.196 244.926 321.761 246.225 331.49C247.667 341.218 247.728 351.129 246.956 360.979V361Z" fill="url(#paint2_linear_506_3138)"/>
<path d="M226.636 384.506C234.047 368.286 237.112 350.335 235.488 332.568C233.823 314.72 227.367 297.543 216.809 282.93C213.926 278.962 211.145 275.604 208.343 272.673L208.261 272.592L208.18 272.51C207.267 271.472 206.231 270.475 205.155 269.417C204.627 268.908 204.079 268.379 203.551 267.85C201.988 266.425 200.323 264.919 198.597 263.494C191.369 257.653 183.857 252.891 176.284 249.37C168.244 245.605 159.899 242.817 151.453 241.067C143.433 239.459 135.495 238.645 127.881 238.645C127.272 238.645 126.663 238.645 126.054 238.645H126.013H125.83C122.359 238.645 119.009 237.22 116.633 234.737C114.379 232.397 113.202 229.344 113.324 226.149C113.527 220.735 115.963 218.334 117.953 217.275C144.509 203.172 167.249 185.873 183.695 167.251C193.075 156.627 200.181 145.902 204.972 135.176C187.004 155.223 160.285 170.222 135.84 183.939C108.207 199.447 82.0973 214.101 81.5288 230.382C81.0009 245.442 89.0004 249.085 126.825 263.84L132.571 266.079C186.72 287.265 214.88 321.13 211.855 361.447C207.571 418.88 160.894 448.044 114.562 453.152C116.369 453.234 118.196 453.254 120.003 453.254C121.262 453.254 122.521 453.254 123.78 453.193C132.673 453.051 141.342 451.87 149.605 449.693C153.301 448.756 157.097 447.556 161.99 445.765C165.645 444.279 169.848 442.508 173.746 440.412L173.807 440.371L173.868 440.331C177.604 438.458 181.116 436.179 184.852 433.757H184.892C188.06 431.478 191.755 428.791 195.146 425.861C208.708 414.342 219.591 400.034 226.616 384.424L226.636 384.506Z" fill="url(#paint3_radial_506_3138)"/>
<path d="M304.309 260.866C301.347 257.83 298.627 254.676 296.16 251.401C293.685 248.13 292.451 244.203 292.451 239.622V227.843C292.451 225.415 292.822 223.71 293.564 222.727C294.306 221.745 295.354 221.254 296.716 221.254H297.454C298.813 221.254 299.864 221.723 300.606 222.656C301.347 223.593 301.719 225.275 301.719 227.705V248.243C301.719 250.452 303.511 252.243 305.724 252.243H310.867C313.078 252.243 314.872 250.452 314.872 248.243V226.162C314.872 223.638 314.376 221.489 313.388 219.711C312.398 217.937 311.074 216.486 309.406 215.364C307.737 214.243 305.887 213.401 303.847 212.842C301.812 212.28 299.679 212 297.454 212H295.604C293.501 212 291.404 212.28 289.304 212.842C287.204 213.402 285.321 214.243 283.653 215.364C281.987 216.486 280.625 217.937 279.577 219.711C278.526 221.488 278.001 223.638 278.001 226.162V241.305C278.001 245.98 279.234 249.976 281.709 253.294C284.177 256.614 286.896 259.791 289.86 262.829C292.823 265.869 295.54 269.022 298.01 272.293C300.481 275.568 301.719 279.492 301.719 284.073V295.85C301.719 298.281 301.254 299.989 300.328 300.968C299.4 301.951 298.256 302.441 296.901 302.441H296.16C294.798 302.441 293.624 301.951 292.636 300.968C291.649 299.989 291.158 298.281 291.158 295.85V275.31C291.158 273.102 289.365 271.312 287.152 271.312H282.005C279.794 271.312 278 273.102 278 275.31V297.532C278 300.057 278.525 302.208 279.576 303.983C280.624 305.761 282.015 307.231 283.744 308.401C285.473 309.569 287.385 310.411 289.488 310.922C291.588 311.436 293.749 311.695 295.972 311.695H298.752C300.976 311.695 303.133 311.413 305.236 310.853C307.333 310.292 309.187 309.451 310.795 308.329C312.396 307.207 313.693 305.761 314.685 303.982C315.671 302.208 316.168 300.056 316.168 297.531V282.389C316.168 277.716 314.93 273.72 312.459 270.4C309.988 267.083 307.272 263.904 304.308 260.866L304.309 260.866Z" fill="#6D6E70"/>
<path d="M342.032 222.095H350.625V306.855C350.625 309.064 352.418 310.854 354.629 310.854H361.071C363.282 310.854 365.076 309.064 365.076 306.855V222.095H373.484C375.697 222.095 377.49 220.305 377.49 218.097V216.84C377.49 214.632 375.697 212.842 373.484 212.842H342.032C339.821 212.842 338.027 214.632 338.027 216.84V218.097C338.027 220.305 339.821 222.095 342.032 222.095Z" fill="#6D6E70"/>
<path d="M438.624 306.577C438.375 305.224 438.159 303.469 437.975 301.317C437.792 299.17 437.7 296.506 437.7 293.326V271.312C437.7 268.321 437.089 266.101 435.87 264.651C434.648 263.203 433.123 262.292 431.295 261.916C433.124 261.452 434.648 260.494 435.87 259.044C437.09 257.593 437.7 255.375 437.7 252.383V226.863C437.7 222.375 436.008 218.919 432.628 216.486C429.244 214.057 425.161 212.842 420.367 212.842H403.538C401.325 212.842 399.533 214.632 399.533 216.84V306.854C399.533 309.063 401.325 310.854 403.538 310.854H409.978C412.19 310.854 413.983 309.063 413.983 306.854V269.983C413.983 267.775 415.776 265.983 417.988 265.983H419.541C422.013 265.983 423.247 268.086 423.247 272.293V293.326C423.247 298.373 423.397 302.279 423.704 305.035C423.821 306.099 423.979 307.042 424.179 307.862C424.611 309.636 426.235 310.853 428.064 310.853H439.922C439.797 310.666 439.612 310.247 439.365 309.592C439.116 308.937 438.87 307.932 438.624 306.576V306.577ZM423.246 251.681C423.246 255.795 422.013 257.853 419.541 257.853H417.988C415.775 257.853 413.982 256.061 413.982 253.853V226.094C413.982 223.886 415.775 222.095 417.988 222.095H418.985C421.827 222.095 423.246 224.247 423.246 228.547V251.681Z" fill="#6D6E70"/>
<path d="M486.975 295.85C486.975 298.281 486.607 299.989 485.866 300.968C485.124 301.951 484.133 302.441 482.9 302.441H481.976C480.615 302.441 479.567 301.951 478.824 300.968C478.082 299.989 477.713 298.281 477.713 295.85V216.84C477.713 214.632 475.918 212.842 473.707 212.842H467.266C465.054 212.842 463.261 214.632 463.261 216.84V297.532C463.261 300.057 463.783 302.208 464.827 303.983C465.874 305.761 467.226 307.231 468.884 308.401C470.543 309.569 472.42 310.411 474.508 310.922C476.6 311.436 478.688 311.695 480.779 311.695H483.911C486.125 311.695 488.273 311.413 490.364 310.853C492.451 310.292 494.326 309.451 495.989 308.329C497.646 307.207 498.966 305.761 499.951 303.982C500.936 302.208 501.429 300.056 501.429 297.531V216.84C501.429 214.631 499.636 212.841 497.424 212.841H490.979C488.768 212.841 486.975 214.631 486.975 216.84V295.849V295.85Z" fill="#6D6E70"/>
<path d="M558.211 215.364C556.543 214.243 554.658 213.401 552.56 212.842C550.457 212.28 548.36 212 546.26 212H542.926C540.823 212 538.726 212.28 536.626 212.842C534.527 213.402 532.644 214.243 530.974 215.364C529.309 216.486 527.981 217.937 526.991 219.711C526.001 221.488 525.508 223.638 525.508 226.162V297.532C525.508 300.057 526.001 302.208 526.991 303.983C527.98 305.761 529.309 307.208 530.974 308.33C532.644 309.451 534.526 310.293 536.626 310.854C538.726 311.414 540.823 311.695 542.926 311.695H546.26C548.36 311.695 550.457 311.414 552.56 310.854C554.658 310.293 556.543 309.451 558.211 308.33C559.877 307.208 561.205 305.761 562.195 303.983C563.182 302.208 563.677 300.057 563.677 297.532V275.17C563.677 272.96 561.885 271.17 559.672 271.17H553.231C551.02 271.17 549.226 272.96 549.226 275.17V295.85C549.226 298.281 548.856 299.989 548.114 300.968C547.372 301.951 546.321 302.441 544.962 302.441H544.223C542.862 302.441 541.814 301.951 541.072 300.968C540.33 299.989 539.96 298.281 539.96 295.85V227.843C539.96 225.415 540.329 223.71 541.072 222.727C541.814 221.745 542.861 221.254 544.223 221.254H544.962C546.321 221.254 547.372 221.723 548.114 222.656C548.856 223.593 549.226 225.275 549.226 227.705V248.384C549.226 250.593 551.02 252.383 553.231 252.383H559.672C561.885 252.383 563.677 250.593 563.677 248.384V226.162C563.677 223.638 563.182 221.489 562.195 219.711C561.205 217.937 559.877 216.486 558.211 215.364Z" fill="#6D6E70"/>
<path d="M585.538 216.84V218.097C585.538 220.305 587.331 222.095 589.542 222.095H598.134V306.855C598.134 309.064 599.926 310.854 602.139 310.854H608.58C610.793 310.854 612.585 309.064 612.585 306.855V222.095H620.995C623.207 222.095 625 220.305 625 218.097V216.84C625 214.632 623.207 212.842 620.995 212.842H589.543C587.331 212.842 585.539 214.632 585.539 216.84H585.538Z" fill="#6D6E70"/>
<path d="M310.558 345.99C308.896 344.875 307.02 344.04 304.931 343.483C302.837 342.927 300.75 342.647 298.661 342.647H295.339C293.247 342.647 291.159 342.926 289.069 343.483C286.978 344.04 285.104 344.875 283.443 345.99C281.784 347.103 280.461 348.542 279.477 350.305C278.491 352.071 278 354.205 278 356.711V379.72C278 381.47 279.425 382.887 281.18 382.887H289.208C290.964 382.887 292.388 381.47 292.388 379.72V358.244C292.388 355.831 292.758 354.158 293.496 353.23C294.234 352.303 295.279 351.837 296.633 351.837H297.367C298.72 351.837 299.767 352.326 300.504 353.301C301.242 354.274 301.612 355.97 301.612 358.379V379.267C301.612 381.681 301.179 383.539 300.32 384.836C299.458 386.137 298.042 386.785 296.078 386.785H294.645C292.889 386.785 291.465 388.203 291.465 389.953V391.557C291.465 393.305 292.889 394.724 294.645 394.724H296.078C298.042 394.724 299.456 395.374 300.32 396.673C301.179 397.973 301.612 399.829 301.612 402.241V426.051C301.612 428.466 301.242 430.159 300.504 431.134C299.766 432.108 298.72 432.597 297.367 432.597H296.633C295.277 432.597 294.233 432.108 293.496 431.134C292.758 430.158 292.388 428.466 292.388 426.051V404.711C292.388 402.962 290.964 401.544 289.208 401.544H281.18C279.425 401.544 278 402.962 278 404.711V427.722C278 430.23 278.491 432.365 279.477 434.128C280.461 435.892 281.784 437.33 283.443 438.444C285.104 439.56 286.978 440.371 289.069 440.879C291.159 441.39 293.247 441.647 295.339 441.647H298.661C300.75 441.647 302.838 441.39 304.931 440.879C307.019 440.371 308.896 439.558 310.558 438.444C312.214 437.33 313.536 435.892 314.524 434.128C315.505 432.365 316 430.23 316 427.722V402.52C316 398.621 314.768 395.791 312.309 394.027C309.848 392.264 307.02 391.15 303.826 390.684C307.02 390.127 309.848 388.875 312.309 386.925C314.768 384.976 316 382.008 316 378.015V356.711C316 354.205 315.506 352.071 314.524 350.305C313.536 348.541 312.214 347.103 310.558 345.99Z" fill="url(#paint4_linear_506_3138)"/>
<path d="M365.824 379.265H364.531C362.689 379.265 360.872 379.662 359.089 380.448C357.306 381.238 355.738 382.468 354.385 384.139V358.378C354.385 355.968 354.755 354.272 355.494 353.3C356.232 352.324 357.277 351.837 358.631 351.837H359.366C360.717 351.837 361.765 352.302 362.504 353.23C363.242 354.159 363.612 355.83 363.612 358.243V371.364C363.612 373.113 365.035 374.531 366.792 374.531H374.082C375.837 374.531 377.26 373.113 377.26 371.364V356.711C377.26 354.204 376.768 352.07 375.784 350.305C374.798 348.541 373.477 347.102 371.82 345.99C370.157 344.875 368.283 344.04 366.193 343.483C364.099 342.927 361.951 342.647 359.736 342.647H357.34C355.246 342.647 353.159 342.926 351.068 343.483C348.977 344.04 347.103 344.875 345.442 345.99C343.784 347.102 342.459 348.542 341.477 350.305C340.491 352.07 340 354.204 340 356.711V427.581C340 430.088 340.491 432.225 341.477 433.987C342.459 435.753 343.784 437.19 345.442 438.302C347.103 439.417 348.977 440.253 351.068 440.81C353.159 441.366 355.246 441.647 357.34 441.647H360.66C362.751 441.647 364.838 441.366 366.932 440.81C369.018 440.254 370.897 439.417 372.558 438.302C374.216 437.19 375.536 435.753 376.523 433.987C377.505 432.225 378 430.088 378 427.581V393.33C378 388.41 376.708 384.837 374.124 382.609C371.543 380.381 368.775 379.267 365.825 379.267L365.824 379.265ZM363.612 425.908C363.612 428.324 363.242 430.019 362.504 430.99C361.765 431.966 360.719 432.454 359.366 432.454H358.631C357.275 432.454 356.23 431.965 355.494 430.99C354.755 430.019 354.385 428.324 354.385 425.908V393.886C354.508 391.846 354.939 390.428 355.679 389.639C356.417 388.851 357.4 388.454 358.632 388.454H359.368C360.719 388.454 361.767 388.943 362.505 389.917C363.243 390.893 363.613 392.587 363.613 395V425.908H363.612Z" fill="url(#paint5_linear_506_3138)"/>
<path d="M438.523 350.305C437.538 348.541 436.216 347.102 434.558 345.99C432.897 344.875 431.02 344.04 428.932 343.483C426.838 342.927 424.751 342.647 422.66 342.647H419.34C417.246 342.647 415.158 342.926 413.068 343.483C410.977 344.04 409.103 344.875 407.442 345.99C405.784 347.102 404.459 348.542 403.477 350.305C402.489 352.07 402 354.204 402 356.711V427.581C402 430.088 402.489 432.225 403.477 433.987C404.459 435.753 405.784 437.19 407.442 438.302C409.103 439.417 410.977 440.253 413.068 440.81C415.158 441.366 417.246 441.647 419.34 441.647H422.66C424.751 441.647 426.838 441.366 428.932 440.81C431.018 440.254 432.897 439.417 434.558 438.302C436.216 437.19 437.538 435.753 438.523 433.987C439.506 432.225 440 430.088 440 427.581V356.711C440 354.204 439.506 352.07 438.523 350.305ZM425.612 425.908C425.612 428.324 425.242 430.019 424.504 430.99C423.765 431.966 422.72 432.454 421.366 432.454H420.631C419.275 432.454 418.23 431.965 417.494 430.99C416.755 430.019 416.385 428.324 416.385 425.908V358.378C416.385 354.018 417.8 351.836 420.631 351.836H421.366C424.194 351.836 425.61 354.018 425.61 358.378V425.908H425.612Z" fill="url(#paint6_linear_506_3138)"/>
<defs>
<linearGradient id="paint0_linear_506_3138" x1="-0.00875949" y1="327.297" x2="55.2769" y2="327.297" gradientUnits="userSpaceOnUse">
<stop stop-color="#2F2482"/>
<stop offset="0.62" stop-color="#A51380"/>
<stop offset="1" stop-color="#E4007D"/>
</linearGradient>
<radialGradient id="paint1_radial_506_3138" cx="0" cy="0" r="1" gradientUnits="userSpaceOnUse" gradientTransform="translate(85.2448 330.431) scale(83.5071 83.7068)">
<stop stop-color="white"/>
<stop offset="0.06" stop-color="#F5AAEC"/>
<stop offset="0.11" stop-color="#ED61DC"/>
<stop offset="0.15" stop-color="#E72CD0"/>
<stop offset="0.18" stop-color="#E40CC9"/>
<stop offset="0.2" stop-color="#E300C7"/>
<stop offset="0.33" stop-color="#D301BD"/>
<stop offset="0.52" stop-color="#B603AB"/>
<stop offset="0.57" stop-color="#A707A5"/>
<stop offset="0.67" stop-color="#801395"/>
<stop offset="0.78" stop-color="#512382"/>
<stop offset="1" stop-color="#291F71"/>
</radialGradient>
<linearGradient id="paint2_linear_506_3138" x1="43.9645" y1="235.002" x2="247.443" y2="235.002" gradientUnits="userSpaceOnUse">
<stop stop-color="#2F2482"/>
<stop offset="0.62" stop-color="#A51380"/>
<stop offset="1" stop-color="#E4007D"/>
</linearGradient>
<radialGradient id="paint3_radial_506_3138" cx="0" cy="0" r="1" gradientUnits="userSpaceOnUse" gradientTransform="translate(158.701 294.266) scale(124.784 125.082)">
<stop stop-color="#FFEC00"/>
<stop offset="0.3" stop-color="#FFCB00"/>
<stop offset="1" stop-color="#EE7C00"/>
</radialGradient>
<linearGradient id="paint4_linear_506_3138" x1="309.08" y1="334" x2="261.761" y2="352.147" gradientUnits="userSpaceOnUse">
<stop stop-color="#E6A1E5"/>
<stop offset="1" stop-color="#DB01C1"/>
</linearGradient>
<linearGradient id="paint5_linear_506_3138" x1="371.08" y1="334" x2="323.761" y2="352.147" gradientUnits="userSpaceOnUse">
<stop stop-color="#E6A1E5"/>
<stop offset="1" stop-color="#DB01C1"/>
</linearGradient>
<linearGradient id="paint6_linear_506_3138" x1="433.08" y1="334" x2="385.761" y2="352.147" gradientUnits="userSpaceOnUse">
<stop stop-color="#E6A1E5"/>
<stop offset="1" stop-color="#DB01C1"/>
</linearGradient>
</defs>
</svg>
